<?xml version="1.0" encoding="UTF-8"?>
<svg width="190" height="190" fill="none" viewBox="0 0 180 86" xmlns="http://www.w3.org/2000/svg">
<line x2="180" y1="66.477" y2="66.477" stroke="#fff"/>
<line x1="19.884" x2="169.54" y1="75.895" y2="75.895" stroke="#fff"/>
<line x1="19.884" x2="170.58" y1="85.314" y2="85.314" stroke="#fff"/>
<line x1=".54651" x2=".54651" y1="65.93" stroke="#fff"/>
<line x2="10.465" y1=".54651" y2=".54651" stroke="#fff"/>
<line x1="9.9186" x2="9.9186" y1="1.0465" y2="65.93" stroke="#fff"/>
<line x1="19.884" y1="9.9186" y2="9.9186" stroke="#fff"/>
<line x1="19.337" x2="19.337" y1="10.465" y2="85.814" stroke="#fff"/>
<line x2="18.837" y1="19.384" y2="19.384" stroke="#fff"/>
<line x1="1.0465" x2="178.95" y1="28.802" y2="28.802" stroke="#fff"/>
<line x1="1.0465" x2="178.95" y1="38.221" y2="38.221" stroke="#fff"/>
<line x1="1.0465" x2="178.95" y1="47.64" y2="47.64" stroke="#fff"/>
<line x1="1.0465" x2="178.95" y1="57.058" y2="57.058" stroke="#fff"/>
<line x1="28.756" x2="28.756" y1="28.256" y2="84.767" stroke="#fff"/>
<line x1="38.174" x2="38.174" y1="28.256" y2="84.767" stroke="#fff"/>
<line x1="57.012" x2="57.012" y1="28.256" y2="84.767" stroke="#fff"/>
<line x1="66.43" x2="66.43" y1="28.256" y2="84.767" stroke="#fff"/>
<line x1="75.849" x2="75.849" y1="28.256" y2="84.767" stroke="#fff"/>
<line x1="85.267" x2="85.267" y1="28.256" y2="84.767" stroke="#fff"/>
<line x1="94.686" x2="94.686" y1="28.256" y2="84.767" stroke="#fff"/>
<line x1="104.1" x2="104.1" y1="28.256" y2="84.767" stroke="#fff"/>
<line x1="113.52" x2="113.52" y1="28.256" y2="84.767" stroke="#fff"/>
<line x1="122.94" x2="122.94" y1="9.4186" y2="84.767" stroke="#fff"/>
<line x1="132.36" x2="132.36" y1="9.4186" y2="84.767" stroke="#fff"/>
<line x1="141.78" x2="141.78" y1="9.4186" y2="85.814" stroke="#fff"/>
<line x1="151.2" x2="151.2" y1="9.4186" y2="84.767" stroke="#fff"/>
<line x1="160.62" x2="160.62" y1="9.4186" y2="84.767" stroke="#fff"/>
<line x1="170.04" x2="170.04" y1="1.0465" y2="84.767" stroke="#fff"/>
<line x1="179.45" x2="179.45" y1="1.0465" y2="65.93" stroke="#fff"/>
<line x1="47.593" x2="47.593" y1="28.256" y2="84.767" stroke="#fff"/>
<line x1="178.95" x2="122.44" y1="19.337" y2="19.337" stroke="#fff"/>
<line x1="180" x2="122.44" y1="9.9186" y2="9.9186" stroke="#fff"/>
<line x1="169.54" x2="180" y1=".54651" y2=".54651" stroke="#fff"/>
<rect x="1.0465" y="1.0465" width="8.3721" height="8.3721" fill="#8C0250"/>
<rect x="1.0465" y="38.721" width="8.3721" height="8.3721" fill="#E5B80B"/>
<rect x="1.0465" y="57.558" width="8.3721" height="8.3721" fill="#E5B80B"/>
<rect x="1.0465" y="48.14" width="8.3721" height="8.3721" fill="#E5B80B"/>
<rect x="1.0465" y="29.302" width="8.3721" height="8.3721" fill="#E5B80B"/>
<rect x="1.0465" y="19.884" width="8.3721" height="8.3721" fill="#E5B80B"/>
<rect x="1.0465" y="10.465" width="8.3721" height="8.3721" fill="#E5B80B"/>
<rect x="10.465" y="38.721" width="8.3721" height="8.3721" fill="#f60"/>
<rect x="10.465" y="57.558" width="8.3721" height="8.3721" fill="#f60"/>
<rect x="10.465" y="48.14" width="8.3721" height="8.3721" fill="#f60"/>
<rect x="10.465" y="29.302" width="8.3721" height="8.3721" fill="#f60"/>
<rect x="10.465" y="19.884" width="8.3721" height="8.3721" fill="#f60"/>
<rect x="10.465" y="10.465" width="8.3721" height="8.3721" fill="#f60"/>
<rect x="161.16" y="10.465" width="8.3721" height="8.3721" fill="#304EE6"/>
<rect x="161.16" y="48.14" width="8.3721" height="8.3721" fill="#304EE6"/>
<rect x="161.16" y="57.558" width="8.3721" height="8.3721" fill="#304EE6"/>
<rect x="161.16" y="38.721" width="8.3721" height="8.3721" fill="#304EE6"/>
<rect x="161.16" y="29.302" width="8.3721" height="8.3721" fill="#304EE6"/>
<rect x="161.16" y="19.884" width="8.3721" height="8.3721" fill="#304EE6"/>
<rect x="170.58" y="1.0465" width="8.3721" height="8.3721" fill="#9400D3"/>
<rect x="170.58" y="38.721" width="8.3721" height="8.3721" fill="#9400D3"/>
<rect x="170.58" y="57.558" width="8.3721" height="8.3721" fill="#9400D3"/>
<rect x="170.58" y="48.14" width="8.3721" height="8.3721" fill="#9400D3"/>
<rect x="170.58" y="29.302" width="8.3721" height="8.3721" fill="#9400D3"/>
<rect x="170.58" y="19.884" width="8.3721" height="8.3721" fill="#9400D3"/>
<rect x="170.58" y="10.465" width="8.3721" height="8.3721" fill="#9400D3"/>
<rect x="142.33" y="10.465" width="8.3721" height="8.3721" fill="#008000"/>
<rect x="142.33" y="19.884" width="8.3721" height="8.3721" fill="#008000"/>
<rect x="151.74" y="10.465" width="8.3721" height="8.3721" fill="#008000"/>
<rect x="151.74" y="29.302" width="8.3721" height="8.3721" fill="#008000"/>
<rect x="151.74" y="19.884" width="8.3721" height="8.3721" fill="#008000"/>
<rect x="132.91" y="10.465" width="8.3721" height="8.3721" fill="#008000"/>
<rect x="123.49" y="48.14" width="8.3721" height="8.3721" fill="#FF007F"/>
<rect x="123.49" y="38.721" width="8.3721" height="8.3721" fill="#FF007F"/>
<rect x="123.49" y="29.302" width="8.3721" height="8.3721" fill="#FF007F"/>
<rect x="123.49" y="19.884" width="8.3721" height="8.3721" fill="#FF007F"/>
<rect x="142.33" y="48.14" width="8.3721" height="8.3721" fill="#FF007F"/>
<rect x="151.74" y="48.14" width="8.3721" height="8.3721" fill="#FF007F"/>
<rect x="132.91" y="48.14" width="8.3721" height="8.3721" fill="#FF007F"/>
<rect x="132.91" y="57.558" width="8.3721" height="8.3721" fill="#FF007F"/>
<rect x="132.91" y="38.721" width="8.3721" height="8.3721" fill="#FF007F"/>
<rect x="123.49" y="57.558" width="8.3721" height="8.3721" fill="#FF007F"/>
<rect x="142.33" y="57.558" width="8.3721" height="8.3721" fill="#FF007F"/>
<rect x="151.74" y="57.558" width="8.3721" height="8.3721" fill="#FF007F"/>
<rect x="123.49" y="10.465" width="8.3721" height="8.3721" fill="#8DB600"/>
<rect x="142.33" y="38.721" width="8.3721" height="8.3721" fill="#8DB600"/>
<rect x="142.33" y="29.302" width="8.3721" height="8.3721" fill="#8DB600"/>
<rect x="151.74" y="38.721" width="8.3721" height="8.3721" fill="#8DB600"/>
<rect x="132.91" y="29.302" width="8.3721" height="8.3721" fill="#8DB600"/>
<rect x="132.91" y="19.884" width="8.3721" height="8.3721" fill="#8DB600"/>
<rect x="29.302" y="66.977" width="8.3721" height="8.3721" fill="#054F77"/>
<rect x="38.721" y="66.977" width="8.3721" height="8.3721" fill="#054F77"/>
<rect x="48.14" y="66.977" width="8.3721" height="8.3721" fill="#054F77"/>
<rect x="66.977" y="66.977" width="8.3721" height="8.3721" fill="#054F77"/>
<rect x="76.395" y="66.977" width="8.3721" height="8.3721" fill="#054F77"/>
<rect x="85.814" y="66.977" width="8.3721" height="8.3721" fill="#054F77"/>
<rect x="95.233" y="66.977" width="8.3721" height="8.3721" fill="#054F77"/>
<rect x="104.65" y="66.977" width="8.3721" height="8.3721" fill="#054F77"/>
<rect x="114.07" y="66.977" width="8.3721" height="8.3721" fill="#054F77"/>
<rect x="123.49" y="66.977" width="8.3721" height="8.3721" fill="#054F77"/>
<rect x="142.33" y="66.977" width="8.3721" height="8.3721" fill="#054F77"/>
<rect x="151.74" y="66.977" width="8.3721" height="8.3721" fill="#054F77"/>
<rect x="161.16" y="66.977" width="8.3721" height="8.3721" fill="#054F77"/>
<rect x="132.91" y="66.977" width="8.3721" height="8.3721" fill="#054F77"/>
<rect x="57.558" y="66.977" width="8.3721" height="8.3721" fill="#054F77"/>
<rect x="19.884" y="66.977" width="8.3721" height="8.3721" fill="#054F77"/>
<path d="m123.49 76.395h8.372v8.372h-8.372v-8.372z" fill="#4169E1"/>
<rect x="29.302" y="76.395" width="8.3721" height="8.3721" fill="#4169E1"/>
<rect x="38.721" y="76.395" width="8.3721" height="8.3721" fill="#4169E1"/>
<rect x="48.14" y="76.395" width="8.3721" height="8.3721" fill="#4169E1"/>
<rect x="66.977" y="76.395" width="8.3721" height="8.3721" fill="#4169E1"/>
<rect x="76.395" y="76.395" width="8.3721" height="8.3721" fill="#4169E1"/>
<rect x="85.814" y="76.395" width="8.3721" height="8.3721" fill="#4169E1"/>
<rect x="95.233" y="76.395" width="8.3721" height="8.3721" fill="#4169E1"/>
<rect x="104.65" y="76.395" width="8.3721" height="8.3721" fill="#4169E1"/>
<rect x="114.07" y="76.395" width="8.3721" height="8.3721" fill="#4169E1"/>
<path d="m142.33 76.395h8.372v8.372h-8.372v-8.372z" fill="#4169E1"/>
<path d="m151.74 76.395h8.372v8.372h-8.372v-8.372z" fill="#4169E1"/>
<path d="m161.16 76.395h8.372v8.372h-8.372v-8.372z" fill="#4169E1"/>
<path d="m132.91 76.395h8.372v8.372h-8.372v-8.372z" fill="#4169E1"/>
<rect x="57.558" y="76.395" width="8.3721" height="8.3721" fill="#4169E1"/>
<rect x="19.884" y="76.395" width="8.3721" height="8.3721" fill="#4169E1"/>
<rect x="29.302" y="29.302" width="8.3721" height="8.3721" fill="#970700"/>
<rect x="29.302" y="57.558" width="8.3721" height="8.3721" fill="#970700"/>
<rect x="29.302" y="48.14" width="8.3721" height="8.3721" fill="#970700"/>
<rect x="29.302" y="38.721" width="8.3721" height="8.3721" fill="#970700"/>
<rect x="38.721" y="29.302" width="8.3721" height="8.3721" fill="#970700"/>
<rect x="38.721" y="57.558" width="8.3721" height="8.3721" fill="#970700"/>
<rect x="38.721" y="48.14" width="8.3721" height="8.3721" fill="#970700"/>
<rect x="38.721" y="38.721" width="8.3721" height="8.3721" fill="#970700"/>
<rect x="48.14" y="29.302" width="8.3721" height="8.3721" fill="#970700"/>
<rect x="48.14" y="57.558" width="8.3721" height="8.3721" fill="#970700"/>
<rect x="48.14" y="48.14" width="8.3721" height="8.3721" fill="#970700"/>
<rect x="48.14" y="38.721" width="8.3721" height="8.3721" fill="#970700"/>
<rect x="66.977" y="29.302" width="8.3721" height="8.3721" fill="#970700"/>
<rect x="66.977" y="57.558" width="8.3721" height="8.3721" fill="#970700"/>
<rect x="66.977" y="48.14" width="8.3721" height="8.3721" fill="#970700"/>
<rect x="66.977" y="38.721" width="8.3721" height="8.3721" fill="#970700"/>
<rect x="76.395" y="29.302" width="8.3721" height="8.3721" fill="#970700"/>
<rect x="76.395" y="57.558" width="8.3721" height="8.3721" fill="#970700"/>
<rect x="76.395" y="48.14" width="8.3721" height="8.3721" fill="#970700"/>
<rect x="76.395" y="38.721" width="8.3721" height="8.3721" fill="#970700"/>
<rect x="85.814" y="29.302" width="8.3721" height="8.3721" fill="#970700"/>
<rect x="85.814" y="57.558" width="8.3721" height="8.3721" fill="#970700"/>
<rect x="85.814" y="48.14" width="8.3721" height="8.3721" fill="#970700"/>
<rect x="85.814" y="38.721" width="8.3721" height="8.3721" fill="#970700"/>
<rect x="95.233" y="29.302" width="8.3721" height="8.3721" fill="#970700"/>
<rect x="95.233" y="57.558" width="8.3721" height="8.3721" fill="#970700"/>
<rect x="95.233" y="48.14" width="8.3721" height="8.3721" fill="#970700"/>
<rect x="95.233" y="38.721" width="8.3721" height="8.3721" fill="#970700"/>
<rect x="104.65" y="29.302" width="8.3721" height="8.3721" fill="#970700"/>
<rect x="104.65" y="57.558" width="8.3721" height="8.3721" fill="#970700"/>
<rect x="104.65" y="48.14" width="8.3721" height="8.3721" fill="#970700"/>
<rect x="104.65" y="38.721" width="8.3721" height="8.3721" fill="#970700"/>
<rect x="114.07" y="29.302" width="8.3721" height="8.3721" fill="#970700"/>
<rect x="114.07" y="57.558" width="8.3721" height="8.3721" fill="#970700"/>
<rect x="114.07" y="48.14" width="8.3721" height="8.3721" fill="#970700"/>
<rect x="114.07" y="38.721" width="8.3721" height="8.3721" fill="#970700"/>
<rect x="57.558" y="29.302" width="8.3721" height="8.3721" fill="#970700"/>
<rect x="57.558" y="57.558" width="8.3721" height="8.3721" fill="#970700"/>
<rect x="57.558" y="48.14" width="8.3721" height="8.3721" fill="#970700"/>
<rect x="57.558" y="38.721" width="8.3721" height="8.3721" fill="#970700"/>
<rect x="19.884" y="29.302" width="8.3721" height="8.3721" fill="#970700"/>
<rect x="19.884" y="57.558" width="8.3721" height="8.3721" fill="#970700"/>
<rect x="19.884" y="48.14" width="8.3721" height="8.3721" fill="#970700"/>
<rect x="19.884" y="38.721" width="8.3721" height="8.3721" fill="#970700"/>
</svg>
